<?xml version="1.0" encoding="utf-8"?>
<!-- Generator: Adobe Illustrator 18.0.0, SVG Export Plug-In . SVG Version: 6.00 Build 0)  -->
<!DOCTYPE svg PUBLIC "-//W3C//DTD SVG 1.1//EN" "http://www.w3.org/Graphics/SVG/1.1/DTD/svg11.dtd">
<svg version="1.1" xmlns="http://www.w3.org/2000/svg" xmlns:xlink="http://www.w3.org/1999/xlink" x="0px" y="0px"
	 viewBox="0 0 321 126" enable-background="new 0 0 321 126" xml:space="preserve">
<g id="_x2014_ÎÓÈ_1">
	<path fill="#FFFFFF" d="M315.9,50.8l-0.5,1.2c-1.4,3.7-2.8,6.4-4,8.1c-0.9,1.2-1.7,1.9-2.6,2.3c-0.6,0.3-2,0.6-4.9,0.6h-7.8
		c-1.1,0-1.5-0.1-1.4-0.1c-0.1-0.1-0.2-0.2-0.3-0.4c0-0.1-0.2-0.8-0.2-4.5V39.3h8.2c2,0,2.9,0.4,3.2,0.6c0.6,0.4,1,0.9,1.3,1.6
		c0.1,0.3,0.4,1.5,0.8,5.4l0.2,1.7h4.9V23.1h-5l-0.1,1.8c-0.2,3.9-0.9,5.6-1.5,6.3c-0.2,0.3-1,0.9-3.8,0.9h-8.2V11.4h10.7
		c2.7,0,3.6,0.3,3.8,0.4c0.8,0.4,1.3,1.1,1.8,2c0.3,0.7,0.9,2.4,1.4,6.2l0.2,1.6h5l-0.6-17.5h-39.1v5.5h3.5c1.6,0,2.2,0.6,2.4,0.9
		c0.1,0.1,0.6,1.1,0.6,6.3v40.5c0,3.7-0.2,5.1-0.3,5.5c-0.2,0.7-0.5,1-0.8,1.2c-0.6,0.5-1.3,0.7-1.9,0.7h-3.5v5.5h38.8l4.9-19.4
		H315.9z"/>
	<path fill="#FFFFFF" d="M269.2,51.9c-2.6,4.9-4.9,8.1-7,9.7c-2,1.5-4.2,2.2-6.7,2.2c-3,0-5.6-0.9-7.9-2.9c-2.4-2-4.2-4.9-5.4-8.6
		c-1.3-3.9-1.9-8.6-1.9-14.1c0-6.6,0.7-12.2,2-16.6c1.3-4.2,3-7.3,5.2-9.1c2.1-1.8,4.4-2.7,7-2.7c3.1,0,5.7,1.2,7.9,3.6
		c2.3,2.5,4.2,6.8,5.5,12.8l0.3,1.5h4.6l-1.2-25H267l-0.3,1.6c-0.3,1.5-0.7,2.3-0.7,2.8c0,0-0.3-0.1-1.2-0.7
		c-8-5.4-16.8-4.5-23.9,1.1c-3.8,3.1-6.9,7.4-9.1,12.9c-2.1,5.4-3.2,11.4-3.2,17.8c0,8,1.7,15.1,4.9,21c4.5,8.3,11,12.5,19.3,12.5
		c4.7,0,8.8-1.4,12.2-4.3c3.3-2.8,6.2-7.1,8.6-12.9l0.5-1.3l-3.9-3.4L269.2,51.9z"/>
	<path fill="#FFFFFF" d="M167.4,63.3c-0.5-0.6-1.6-2.3-3.1-7.4L147.9,2.7h-4l-16.6,52.6c-1.7,5.3-2.8,7.5-3.5,8.4
		c0,0.1-0.5,0.6-2.7,1.1l-1.5,0.4v5.1h18.3v-5.3l-1.7-0.2c-2.6-0.2-3.1-0.8-3.1-0.8c-0.3-0.4-0.5-0.8-0.5-1.2c0-0.7,0.2-2.1,1.1-4.8
		l2.7-8.5h15l2.4,7.6c0.8,2.7,1.3,4.7,1.3,5.8c0,0.7-0.3,1.1-0.5,1.3c0,0.1-0.5,0.5-2.4,0.6l-1.8,0.1v5.4h21.9v-5.4l-1.8-0.1
		C169.1,64.6,168.1,64.2,167.4,63.3z M138.6,42.2l5.4-16.9l5.2,16.9H138.6z"/>
	<path fill="#FFFFFF" d="M207.7,9.7h3.5c1.5,0,2,0.6,2.4,1.1c0.1,0.1,0.6,1.1,0.6,6.1v29L189.1,4.1h-15.4v5.5h1.9
		c1.4,0,2.1,0.2,2.2,0.2c1.1,0.5,1.9,1,2.4,1.5c0.3,0.3,1,1.2,2.5,3.4v42.8c0,4.6-0.4,5.7-0.5,5.8c-0.3,0.7-0.9,1.4-2.5,1.4h-3.5
		v5.5H196v-5.5h-3.5c-1.5,0-2-0.6-2.4-1.1c-0.1-0.1-0.6-1.1-0.6-6.1V26l27.3,45.2h4.2V16.9c0-4.4,0.4-5.6,0.5-5.8
		c0.3-0.7,0.9-1.3,2.4-1.3h3.5V4.1h-19.8V9.7z"/>
	<g>
		<path fill="#FFFFFF" d="M190.5,89.1l2.1,0c-0.1,0.1-0.2,0.3-0.3,0.5c-0.6,0.8-2.4,2.8-7.4,7.5l0.7-4.8c0.3-1.8,0.5-2.3,0.5-2.5
			c0.1-0.2,0.2-0.3,0.3-0.4c0.4-0.2,0.7-0.3,1-0.3h2.1l0.6-3.7h-13.4l-0.6,3.7h2.5c0.3,0,0.5,0.1,0.8,0.2c0,0.1,0.1,0.6-0.2,2.5
			l-2.9,18.9c-0.3,2.1-0.6,2.6-0.6,2.6c-0.2,0.2-0.5,0.5-1.3,0.5h-2.1l-0.6,3.7h13.4l0.6-3.7h-2.5c-0.3,0-0.5-0.1-0.8-0.3
			c0,0-0.1-0.5,0.2-2.4l0.9-5.9l4.9,7c0.5,0.8,0.7,1.1,0.7,1.1c0,0.1,0,0.2-0.1,0.4c0,0-0.2,0.1-0.7,0.1h-1.2l-0.6,3.7h14.6l0.5-3.5
			l-1.5-0.1c-0.8-0.1-1.6-0.3-2.3-0.8c-0.5-0.4-1.5-1.2-2.9-3.2l-6.7-9.7l3.6-3.6c2.6-2.6,4-4.1,4.3-4.4c1-0.9,1.8-1.6,2.5-2
			c0.8-0.5,1.2-0.7,1.4-0.8c0.3-0.1,0.7-0.2,1-0.2l1.2,0l0.5-3.6H191L190.5,89.1z"/>
		<path fill="#FFFFFF" d="M224.3,85.5l-0.6,3.7h1.7c0.5,0,0.7,0.1,0.7,0.1l0.5-0.9h0.1l-0.5,1.2c0,0.1-0.2,0.8-1.3,2.4l-4.7,6.8
			l-2.7-6.9c-0.6-1.6-0.6-2-0.6-2c0-0.3,0.1-0.3,0.3-0.4c0.3-0.2,0.6-0.3,0.9-0.3h1.8l0.5-3.7H207l-0.3,2l0,1.6h1.7
			c0.9,0.6,1.1,0.8,1.1,0.8c0.1,0.1,0.3,0.6,1.1,2.4l4.7,11.9l-1,6.5c-0.3,2-0.6,2.5-0.6,2.5c-0.2,0.2-0.5,0.5-1.2,0.5h-2.1
			l-0.5,3.7h13.3l0.6-3.7h-2.5c-0.2,0-0.7,0-0.8-0.1c0-0.1-0.1-0.6,0.2-2.5l1.1-7l7.4-10.8c1.1-1.6,1.8-2.4,2.1-2.8
			c0.5-0.5,1-0.9,1.5-1.1c0.6-0.3,0.8-0.3,0.8-0.3h1.7l0.5-3.7H224.3z"/>
		<path fill="#FFFFFF" d="M167.9,95.3l2.2-15.2H167l-0.3,0.8c-0.3,0.9-0.6,1.2-0.6,1.2c-0.1,0.1-0.2,0.2-0.5,0.2c0,0-0.4,0-1.6-0.6
			c-5.7-2.7-11.4-1.8-15.5,1.6c-2.5,2.1-4,4.7-4.5,7.6c-0.2,1.7-0.1,3.4,0.5,4.8c0.6,1.4,1.6,2.8,2.9,3.9c1.3,1.1,3.4,2.6,6.3,4.4
			c1.1,0.7,4.4,2.7,5.2,3.4c0.8,0.7,1.4,1.4,1.7,2.2c0.3,0.8,0.4,1.5,0.3,2.2c-0.2,1.4-0.9,2.5-2.2,3.5c-1.3,1-2.9,1.6-5,1.6
			c-1.8,0-3.3-0.4-4.7-1.2c-1.3-0.8-2.2-1.7-2.7-2.8c-0.6-1.2-0.9-3.1-1-5.6l0-1.1h-3.1l-2.1,15h3.2l0.2-0.8
			c0.3-0.9,0.5-1.2,0.5-1.2c0.1-0.1,0.2-0.1,0.4-0.1c0.1,0,0.6,0,2.9,0.8c1.9,0.6,3,1,3.5,1c1,0.2,2.1,0.3,3.2,0.3
			c3.7,0,6.9-1.1,9.6-3.3c2.7-2.2,4.3-4.9,4.7-8c0.2-1.6,0.1-3.3-0.5-4.8c-0.6-1.5-1.5-2.9-2.7-4c-1.2-1-3.4-2.5-6.7-4.4
			c-4.7-2.7-6.4-4.3-6.9-5.2c-0.5-0.7-0.7-1.4-0.5-2.3c0.2-1.2,0.8-2.3,2-3.2c2.3-1.9,5.6-2,8.4-0.3c1.3,0.7,2.1,1.7,2.7,2.9
			c0.6,1.3,0.8,3.1,0.8,5.4l0,1.2H167.9z"/>
	</g>
	<path fill="#FFFFFF" d="M113.4,19c-2.3-5.3-5.5-9.1-9.4-11.4c-3.9-2.3-9.5-3.4-16.6-3.4H66.8v5.5h3.6c1.1,0,1.8,0.4,2.3,1.1
		c0.1,0.1,0.7,1.2,0.7,6.3v2.5c3.8-1,7.8-1.4,10.3,0v-7.3c1.9-0.5,3.5-0.8,5-0.8c4.8,0,8.6,2.2,11.7,6.6c3.2,4.6,4.8,11.1,4.8,19.2
		c0,8.1-1.6,14.6-4.8,19.2c-3.1,4.5-6.9,6.7-11.5,6.7c-1.5,0-3.2-0.3-5.3-0.8V30.5c-2.8,3.5-7.1,6.8-10.3,8.9v17.9
		c0,4.5-0.4,5.7-0.6,6c-0.5,1-1.2,1.5-2.4,1.5h-3.6v5.5h22.4c9.6,0,16.8-3.6,21.5-10.6c4.1-6.1,6.1-13.8,6.1-22.8
		C116.8,30.2,115.7,24.2,113.4,19z"/>
</g>
<g id="Layer_2">
	<path fill-rule="evenodd" clip-rule="evenodd" fill="#FFFFFF" d="M281.5,85.4c-12.8,5.5-27.5,10-43.5,13.3
		c-2.1,0.4-4.3,0.8-6.5,1.2c-3,0.5-3.7,8.3-1.1,7.7c2.9-0.6,5.8-1.4,8.6-2.1c17-4.8,31.9-10.8,44.4-17.9c7.4-4.3,14-8.5,19.9-12.8
		C296.6,78.6,289.3,82.1,281.5,85.4z"/>
	<path fill-rule="evenodd" clip-rule="evenodd" fill="#FFFFFF" d="M134,99.9c-2.2-0.4-4.3-0.8-6.5-1.2c-16-3.4-30.6-7.9-43.5-13.3
		c-5.5-2.3-10.6-4.8-15.6-7.4c-0.2,0.2-0.4,0.5-0.5,0.7c4.4,3,9,5.9,14.1,8.9c12.5,7.1,27.4,13.1,44.4,17.9c2.8,0.8,5.6,1.5,8.6,2.1
		C137.7,108.2,137,100.4,134,99.9z"/>
	<path fill-rule="evenodd" clip-rule="evenodd" fill="#FFFFFF" d="M80.5,23.1c-1.6-0.1-3.5,0-5.8,0.5c-2.2,0.5-4.2,1.2-5.8,2.1
		c-1.1,0.7-2,1.4-2.8,1.9c-0.8,0.6-1.5,1.1-2,1.6c-0.5,0.5-1.9,1.7-4.2,3.7c-1.8,1.7-3.5,3.2-5,4.5c-1.5,1.3-3.5,3-5.3,4.2
		c0.3,0-1.1,1.1-3.4,2.6l-0.6-2.4c-1.8-7.3-4-13.5-6.6-18.4c-1.6-3-3.2-5.2-4.7-6.5c-1.4-1.2-3.3-1.9-5.7-2.3
		c-1.7-0.3-3.7-0.4-5.8-0.3c0.4,0.7,0.8,1.4,1.1,2.3c0.7,1.6,1.7,4.4,3,8.4c0.7,2.2,1.2,3.6,1.5,4.4l1.8,5.4l6,16
		c-3.9,2.5-7.8,4.8-10.2,6.1c-4.2,2.3-9,4.5-14.6,6.6c-3,1.3-4.9,2.1-5.6,2.6c-1.2,0.7-2.3,1.8-3.4,3.2c-1.1,1.5-1.8,3-2.3,4.5
		c-0.3,1.2-0.3,2.2,0.1,3c0.4,0.8,1,1.3,1.9,1.4c1.6,0.2,5.4-1.2,11.3-4.1c5.9-2.9,12.2-6.5,19-10.8c2.6-1.6,4.7-3,6.7-4.3l1.1,2.7
		c0.9,2.1,1.6,3.7,2.2,4.7c0.5,0.9,1.3,2,2.3,3.2c2.6,2.8,5.8,4.5,9.6,5c1.2,0.2,2.5,0.2,3.8,0c1.5-0.2,3.1-0.5,4.7-1
		c0.2,0,0.3-0.1,0.5-0.2c-0.9-0.8-1.8-1.7-2.5-2.6c-1.3-1.3-2.5-2.8-3.6-4.3c-1.1-1.5-2.2-3.1-3.2-4.9c-1.4-2.3-2.8-5.5-4.3-9.6
		l-0.1-0.4c1.4-1,2.8-2,4.4-3.2c0.6-0.4,1.1-0.8,1.6-1.2c0.5-0.4,0.8-0.6,0.8-0.7c6-4.4,10.8-8.1,14.4-10.9c3.7-2.9,6.4-5.2,8.3-6.9
		c1.8-1.7,2.8-2.9,3-3.7C82.6,23.8,82,23.2,80.5,23.1z"/>
</g>
</svg>
